<svg width="32" height="32" viewBox="0 0 32 32" fill="none" xmlns="http://www.w3.org/2000/svg">
<path d="M25.3333 29.3333H6.66667C5.19391 29.3333 4 28.1394 4 26.6667V8.00001C4 6.52725 5.19391 5.33334 6.66667 5.33334H9.33333V2.66667H12V5.33334H20V2.66667H22.6667V5.33334H25.3333C26.8061 5.33334 28 6.52725 28 8.00001V26.6667C28 28.1394 26.8061 29.3333 25.3333 29.3333ZM6.66667 13.3333V26.6667H25.3333V13.3333H6.66667ZM6.66667 8.00001V10.6667H25.3333V8.00001H6.66667ZM22.6667 24H20V21.3333H22.6667V24ZM17.3333 24H14.6667V21.3333H17.3333V24ZM12 24H9.33333V21.3333H12V24ZM22.6667 18.6667H20V16H22.6667V18.6667ZM17.3333 18.6667H14.6667V16H17.3333V18.6667ZM12 18.6667H9.33333V16H12V18.6667Z" fill="#A5A9CD"/>
</svg>
