<svg width="32" height="32" viewBox="0 0 32 32" fill="none" xmlns="http://www.w3.org/2000/svg">
<path d="M31.984 16.2992C31.984 14.9872 31.8736 14.032 31.6384 13.04H16.32V18.9568H25.312C25.1312 20.4288 24.152 22.6416 21.9776 24.1296L21.9456 24.328L26.7904 27.9952L27.1264 28.0272C30.208 25.2464 31.9856 21.1536 31.9856 16.2992H31.984Z" fill="#4285F4"/>
<path d="M16.32 31.8896C20.7248 31.8896 24.4224 30.472 27.1248 28.0272L21.976 24.1296C20.5968 25.0688 18.7488 25.7248 16.3184 25.7248C14.2735 25.7267 12.2792 25.0889 10.6149 23.9008C8.9505 22.7127 7.69941 21.0338 7.0368 19.0992L6.8448 19.1152L1.808 22.9232L1.7424 23.1024C4.4256 28.312 9.9376 31.8896 16.3184 31.8896H16.32Z" fill="#34A853"/>
<path d="M7.03679 19.0992C6.68052 18.0858 6.49664 17.0198 6.49279 15.9456C6.49279 14.8464 6.69279 13.784 7.01919 12.792L7.00959 12.5808L1.90879 8.7088L1.74239 8.7888C0.601769 11.0016 0.00501268 13.4545 0.00158691 15.944C0.00475842 18.4341 0.601522 20.8875 1.74239 23.1008L7.03679 19.0976V19.0992Z" fill="#FBBC05"/>
<path d="M16.32 6.1648C19.3824 6.1648 21.4496 7.4592 22.6288 8.5392L27.2336 4.1456C24.4048 1.576 20.7248 0 16.3184 0C9.93759 0 4.42559 3.5792 1.74399 8.7872L7.01919 12.792C7.68796 10.8574 8.9432 9.17946 10.6102 7.99165C12.2772 6.80383 14.2731 6.16526 16.32 6.1648V6.1648Z" fill="#EB4335"/>
</svg>
