<svg width="22" height="30" viewBox="0 0 22 30" fill="none" xmlns="http://www.w3.org/2000/svg">
<g clip-path="url(#clip0_43_34)">
<path d="M21.8182 14.4156L21.8182 23.7662H18.7013L18.7013 14.4156H21.8182Z" fill="white"/>
<path d="M21.8182 23.7662V28.4416L18.7014 30V23.7662H21.8182Z" fill="white"/>
<path d="M21.8182 10.1299V13.2468H18.7013V10.1299H21.8182Z" fill="white"/>
<path d="M18.7013 26.8831V30L15.1948 28.8312V25.7143L17.1429 26.8831H18.7013Z" fill="white"/>
<path d="M6.23377 0H21.8182V3.11688H3.11688L6.23377 0Z" fill="white"/>
<path d="M3.11688 20.6494H14.8052V23.7662H3.11688V20.6494Z" fill="white"/>
<path d="M17.9221 10.1299V13.2468H8.57141V10.1299H17.9221Z" fill="white"/>
<path d="M11.6883 13.2467H14.8052V20.6493H11.6883V13.2467Z" fill="white"/>
<path d="M3.11688 3.11688V23.7662L0 20.2597L3.87195e-08 6.62338L3.11688 3.11688Z" fill="white"/>
<path d="M3.11688 8.18183L3.1169 3.11688L8.18182 3.11689L3.11688 8.18183Z" fill="white"/>
<path d="M3.11688 18.3117V20.6494H5.45454L3.11688 18.3117Z" fill="white"/>
<path d="M14.026 25.7143V28.8312H0L1.36243e-07 25.7143H14.026Z" fill="white"/>
</g>
<defs>
<clipPath id="clip0_43_34">
<rect width="21.8182" height="30" fill="white"/>
</clipPath>
</defs>
</svg>
