<svg width="32" height="32" viewBox="0 0 32 32" fill="none" xmlns="http://www.w3.org/2000/svg">
<path d="M12 12H9.33333V14.6667H12V12Z" fill="#A5A9CD"/>
<path d="M14.6667 12H17.3333V14.6667H14.6667V12Z" fill="#A5A9CD"/>
<path d="M22.6667 12H20V14.6667H22.6667V12Z" fill="#A5A9CD"/>
<path d="M4 6.66667V28L10.4 23.2C10.8611 22.8529 11.4228 22.6656 12 22.6667H25.3333C26.8061 22.6667 28 21.4728 28 20V6.66667C28 5.19391 26.8061 4 25.3333 4H6.66667C5.19391 4 4 5.19391 4 6.66667ZM6.66667 22.6667V6.66667H25.3333V20H11.112C10.5348 19.9984 9.97286 20.1857 9.512 20.5333L6.66667 22.6667Z" fill="#A5A9CD"/>
</svg>
