<svg width="32" height="32" viewBox="0 0 32 32" fill="none" xmlns="http://www.w3.org/2000/svg">
<path d="M18.4267 29.3333H13.5733C12.9468 29.3333 12.4047 28.8973 12.2707 28.2853L11.728 25.7733C11.0041 25.4562 10.3176 25.0595 9.68134 24.5907L7.232 25.3707C6.63467 25.5612 5.98532 25.3097 5.672 24.7667L3.24 20.5653C2.93012 20.022 3.03688 19.3367 3.49734 18.9133L5.39734 17.18C5.31093 16.3948 5.31093 15.6025 5.39734 14.8173L3.49734 13.088C3.0362 12.6645 2.9294 11.9783 3.24 11.4347L5.66667 7.23067C5.97999 6.6876 6.62934 6.43619 7.22667 6.62667L9.676 7.40667C10.0014 7.16555 10.3402 6.94297 10.6907 6.74001C11.0271 6.55026 11.3734 6.37847 11.728 6.22534L12.272 3.71601C12.4054 3.10396 12.9469 2.66733 13.5733 2.66667H18.4267C19.0531 2.66733 19.5946 3.10396 19.728 3.71601L20.2773 6.22667C20.6517 6.39136 21.0163 6.57745 21.3693 6.78401C21.699 6.97437 22.0178 7.18315 22.324 7.40934L24.7747 6.62934C25.3716 6.43956 26.0202 6.69088 26.3333 7.23334L28.76 11.4373C29.0699 11.9807 28.9631 12.666 28.5027 13.0893L26.6027 14.8227C26.6891 15.6079 26.6891 16.4002 26.6027 17.1853L28.5027 18.9187C28.9631 19.342 29.0699 20.0274 28.76 20.5707L26.3333 24.7747C26.0202 25.3171 25.3716 25.5684 24.7747 25.3787L22.324 24.5987C22.0139 24.8271 21.6917 25.0385 21.3587 25.232C21.0091 25.4345 20.6485 25.6175 20.2787 25.78L19.728 28.2853C19.594 28.8969 19.0527 29.3328 18.4267 29.3333ZM15.9947 10.6667C13.0492 10.6667 10.6613 13.0545 10.6613 16C10.6613 18.9455 13.0492 21.3333 15.9947 21.3333C18.9402 21.3333 21.328 18.9455 21.328 16C21.328 13.0545 18.9402 10.6667 15.9947 10.6667Z" fill="white"/>
</svg>
